<mxfile host="app.diagrams.net" modified="2022-12-23T14:10:07.312Z" agent="5.0 (Windows NT 10.0; Win64; x64) AppleWebKit/537.36 (KHTML, like Gecko) Chrome/108.0.0.0 Safari/537.36 Edg/108.0.1462.54" etag="1GoCyUDihJSdWlqifrxu" version="20.7.4" type="github">
  <diagram id="ecB7sbAGjz-5fFJl48nr" name="Página-1">
    <mxGraphModel dx="833" dy="490" grid="1" gridSize="10" guides="1" tooltips="1" connect="1" arrows="1" fold="1" page="1" pageScale="1" pageWidth="827" pageHeight="1169" math="0" shadow="0">
      <root>
        <mxCell id="0" />
        <mxCell id="1" parent="0" />
        <mxCell id="Pn8fTQrSeP5vRvdxLiqo-7" style="edgeStyle=orthogonalEdgeStyle;rounded=0;orthogonalLoop=1;jettySize=auto;html=1;entryX=0.6;entryY=-0.04;entryDx=0;entryDy=0;entryPerimeter=0;" parent="1" source="Pn8fTQrSeP5vRvdxLiqo-1" target="Pn8fTQrSeP5vRvdxLiqo-5" edge="1">
          <mxGeometry relative="1" as="geometry">
            <Array as="points">
              <mxPoint x="332" y="155" />
            </Array>
            <mxPoint x="332" y="190" as="targetPoint" />
          </mxGeometry>
        </mxCell>
        <mxCell id="Pn8fTQrSeP5vRvdxLiqo-1" value="Distância &amp;gt; 120cm?" style="rhombus;whiteSpace=wrap;html=1;" parent="1" vertex="1">
          <mxGeometry x="117" y="110" width="160" height="90" as="geometry" />
        </mxCell>
        <mxCell id="Pn8fTQrSeP5vRvdxLiqo-3" style="edgeStyle=orthogonalEdgeStyle;rounded=0;orthogonalLoop=1;jettySize=auto;html=1;" parent="1" source="Pn8fTQrSeP5vRvdxLiqo-2" target="Pn8fTQrSeP5vRvdxLiqo-1" edge="1">
          <mxGeometry relative="1" as="geometry" />
        </mxCell>
        <mxCell id="Pn8fTQrSeP5vRvdxLiqo-2" value="Começe" style="rounded=1;whiteSpace=wrap;html=1;fillColor=#d5e8d4;strokeColor=#82b366;" parent="1" vertex="1">
          <mxGeometry x="137" y="20" width="120" height="40" as="geometry" />
        </mxCell>
        <mxCell id="Pn8fTQrSeP5vRvdxLiqo-4" value="não caminha caminhar até a porta" style="rounded=1;whiteSpace=wrap;html=1;" parent="1" vertex="1">
          <mxGeometry x="20" y="200" width="117" height="50" as="geometry" />
        </mxCell>
        <mxCell id="Pn8fTQrSeP5vRvdxLiqo-5" value="caminha até a porta" style="rounded=1;whiteSpace=wrap;html=1;" parent="1" vertex="1">
          <mxGeometry x="260" y="200" width="120" height="50" as="geometry" />
        </mxCell>
        <mxCell id="Pn8fTQrSeP5vRvdxLiqo-10" value="Não" style="text;html=1;align=center;verticalAlign=middle;resizable=0;points=[];autosize=1;" parent="1" vertex="1">
          <mxGeometry x="77" y="134" width="50" height="30" as="geometry" />
        </mxCell>
        <mxCell id="Pn8fTQrSeP5vRvdxLiqo-11" value="Sim" style="text;html=1;align=center;verticalAlign=middle;resizable=0;points=[];autosize=1;" parent="1" vertex="1">
          <mxGeometry x="284" y="134" width="40" height="30" as="geometry" />
        </mxCell>
        <mxCell id="3MQ1yS42vCvJlcE-Wziv-9" value="" style="edgeStyle=orthogonalEdgeStyle;rounded=0;orthogonalLoop=1;jettySize=auto;html=1;" parent="1" source="3MQ1yS42vCvJlcE-Wziv-3" target="3MQ1yS42vCvJlcE-Wziv-8" edge="1">
          <mxGeometry relative="1" as="geometry" />
        </mxCell>
        <mxCell id="3MQ1yS42vCvJlcE-Wziv-12" value="" style="edgeStyle=orthogonalEdgeStyle;rounded=0;orthogonalLoop=1;jettySize=auto;html=1;" parent="1" source="3MQ1yS42vCvJlcE-Wziv-3" target="3MQ1yS42vCvJlcE-Wziv-11" edge="1">
          <mxGeometry relative="1" as="geometry" />
        </mxCell>
        <mxCell id="3MQ1yS42vCvJlcE-Wziv-3" value="Usar maçaneta?" style="rhombus;whiteSpace=wrap;html=1;rounded=1;" parent="1" vertex="1">
          <mxGeometry x="240" y="280" width="180" height="110" as="geometry" />
        </mxCell>
        <mxCell id="3MQ1yS42vCvJlcE-Wziv-5" value="" style="endArrow=classic;html=1;rounded=0;entryX=0.5;entryY=0;entryDx=0;entryDy=0;exitX=0.586;exitY=1.025;exitDx=0;exitDy=0;exitPerimeter=0;" parent="1" source="Pn8fTQrSeP5vRvdxLiqo-5" target="3MQ1yS42vCvJlcE-Wziv-3" edge="1">
          <mxGeometry width="50" height="50" relative="1" as="geometry">
            <mxPoint x="390" y="260" as="sourcePoint" />
            <mxPoint x="440" y="210" as="targetPoint" />
          </mxGeometry>
        </mxCell>
        <mxCell id="3MQ1yS42vCvJlcE-Wziv-8" value="Não tem maçaneta" style="whiteSpace=wrap;html=1;rounded=1;" parent="1" vertex="1">
          <mxGeometry x="77" y="305" width="120" height="60" as="geometry" />
        </mxCell>
        <mxCell id="3MQ1yS42vCvJlcE-Wziv-10" value="Não" style="text;html=1;align=center;verticalAlign=middle;resizable=0;points=[];autosize=1;strokeColor=none;fillColor=none;" parent="1" vertex="1">
          <mxGeometry x="195" y="315" width="50" height="30" as="geometry" />
        </mxCell>
        <mxCell id="3MQ1yS42vCvJlcE-Wziv-15" value="" style="edgeStyle=orthogonalEdgeStyle;rounded=0;orthogonalLoop=1;jettySize=auto;html=1;" parent="1" source="3MQ1yS42vCvJlcE-Wziv-11" target="3MQ1yS42vCvJlcE-Wziv-14" edge="1">
          <mxGeometry relative="1" as="geometry" />
        </mxCell>
        <mxCell id="3MQ1yS42vCvJlcE-Wziv-11" value="girar maçaneta sentido horário" style="whiteSpace=wrap;html=1;rounded=1;" parent="1" vertex="1">
          <mxGeometry x="470" y="305" width="120" height="60" as="geometry" />
        </mxCell>
        <mxCell id="3MQ1yS42vCvJlcE-Wziv-13" value="Sim" style="text;html=1;align=center;verticalAlign=middle;resizable=0;points=[];autosize=1;strokeColor=none;fillColor=none;" parent="1" vertex="1">
          <mxGeometry x="410" y="315" width="40" height="30" as="geometry" />
        </mxCell>
        <mxCell id="3MQ1yS42vCvJlcE-Wziv-17" value="" style="edgeStyle=orthogonalEdgeStyle;rounded=0;orthogonalLoop=1;jettySize=auto;html=1;" parent="1" source="3MQ1yS42vCvJlcE-Wziv-14" target="3MQ1yS42vCvJlcE-Wziv-16" edge="1">
          <mxGeometry relative="1" as="geometry" />
        </mxCell>
        <mxCell id="3MQ1yS42vCvJlcE-Wziv-19" value="" style="edgeStyle=orthogonalEdgeStyle;rounded=0;orthogonalLoop=1;jettySize=auto;html=1;" parent="1" source="3MQ1yS42vCvJlcE-Wziv-14" target="3MQ1yS42vCvJlcE-Wziv-18" edge="1">
          <mxGeometry relative="1" as="geometry" />
        </mxCell>
        <mxCell id="3MQ1yS42vCvJlcE-Wziv-14" value="Está fechada?" style="rhombus;whiteSpace=wrap;html=1;rounded=1;" parent="1" vertex="1">
          <mxGeometry x="445" y="440" width="170" height="115" as="geometry" />
        </mxCell>
        <mxCell id="3MQ1yS42vCvJlcE-Wziv-25" value="" style="edgeStyle=orthogonalEdgeStyle;rounded=0;orthogonalLoop=1;jettySize=auto;html=1;" parent="1" source="3MQ1yS42vCvJlcE-Wziv-16" target="3MQ1yS42vCvJlcE-Wziv-24" edge="1">
          <mxGeometry relative="1" as="geometry" />
        </mxCell>
        <mxCell id="3MQ1yS42vCvJlcE-Wziv-16" value="usar chave" style="whiteSpace=wrap;html=1;rounded=1;" parent="1" vertex="1">
          <mxGeometry x="720" y="467.5" width="120" height="60" as="geometry" />
        </mxCell>
        <mxCell id="3MQ1yS42vCvJlcE-Wziv-23" value="" style="edgeStyle=orthogonalEdgeStyle;rounded=0;orthogonalLoop=1;jettySize=auto;html=1;" parent="1" source="3MQ1yS42vCvJlcE-Wziv-18" target="3MQ1yS42vCvJlcE-Wziv-22" edge="1">
          <mxGeometry relative="1" as="geometry" />
        </mxCell>
        <mxCell id="3MQ1yS42vCvJlcE-Wziv-18" value="Abrir porta" style="whiteSpace=wrap;html=1;rounded=1;" parent="1" vertex="1">
          <mxGeometry x="220" y="467.5" width="120" height="60" as="geometry" />
        </mxCell>
        <mxCell id="3MQ1yS42vCvJlcE-Wziv-20" value="Sim" style="text;html=1;align=center;verticalAlign=middle;resizable=0;points=[];autosize=1;strokeColor=none;fillColor=none;" parent="1" vertex="1">
          <mxGeometry x="640" y="465" width="40" height="30" as="geometry" />
        </mxCell>
        <mxCell id="3MQ1yS42vCvJlcE-Wziv-21" value="Não" style="text;html=1;align=center;verticalAlign=middle;resizable=0;points=[];autosize=1;strokeColor=none;fillColor=none;" parent="1" vertex="1">
          <mxGeometry x="375" y="465" width="50" height="30" as="geometry" />
        </mxCell>
        <mxCell id="3MQ1yS42vCvJlcE-Wziv-22" value="Passar" style="ellipse;whiteSpace=wrap;html=1;rounded=1;" parent="1" vertex="1">
          <mxGeometry x="240" y="597.5" width="80" height="80" as="geometry" />
        </mxCell>
        <mxCell id="3MQ1yS42vCvJlcE-Wziv-29" value="" style="edgeStyle=orthogonalEdgeStyle;rounded=0;orthogonalLoop=1;jettySize=auto;html=1;" parent="1" source="3MQ1yS42vCvJlcE-Wziv-24" target="3MQ1yS42vCvJlcE-Wziv-28" edge="1">
          <mxGeometry relative="1" as="geometry" />
        </mxCell>
        <mxCell id="3MQ1yS42vCvJlcE-Wziv-32" value="" style="edgeStyle=orthogonalEdgeStyle;rounded=0;orthogonalLoop=1;jettySize=auto;html=1;" parent="1" source="3MQ1yS42vCvJlcE-Wziv-24" target="3MQ1yS42vCvJlcE-Wziv-31" edge="1">
          <mxGeometry relative="1" as="geometry" />
        </mxCell>
        <mxCell id="3MQ1yS42vCvJlcE-Wziv-24" value="Tem chave ?" style="rhombus;whiteSpace=wrap;html=1;rounded=1;" parent="1" vertex="1">
          <mxGeometry x="690" y="597.5" width="180" height="102.5" as="geometry" />
        </mxCell>
        <mxCell id="3MQ1yS42vCvJlcE-Wziv-36" value="" style="edgeStyle=orthogonalEdgeStyle;rounded=0;orthogonalLoop=1;jettySize=auto;html=1;startArrow=none;" parent="1" source="3MQ1yS42vCvJlcE-Wziv-40" target="3MQ1yS42vCvJlcE-Wziv-35" edge="1">
          <mxGeometry relative="1" as="geometry" />
        </mxCell>
        <mxCell id="3MQ1yS42vCvJlcE-Wziv-28" value="Inserir Chave" style="whiteSpace=wrap;html=1;rounded=1;" parent="1" vertex="1">
          <mxGeometry x="900" y="618.75" width="120" height="60" as="geometry" />
        </mxCell>
        <mxCell id="3MQ1yS42vCvJlcE-Wziv-30" value="Sim" style="text;html=1;align=center;verticalAlign=middle;resizable=0;points=[];autosize=1;strokeColor=none;fillColor=none;" parent="1" vertex="1">
          <mxGeometry x="860" y="622.5" width="40" height="30" as="geometry" />
        </mxCell>
        <mxCell id="SgdXcrDPOoMgYyfdKbHh-2" value="" style="edgeStyle=orthogonalEdgeStyle;rounded=0;orthogonalLoop=1;jettySize=auto;html=1;" edge="1" parent="1" source="3MQ1yS42vCvJlcE-Wziv-31" target="SgdXcrDPOoMgYyfdKbHh-1">
          <mxGeometry relative="1" as="geometry" />
        </mxCell>
        <mxCell id="3MQ1yS42vCvJlcE-Wziv-31" value="Achar chave&amp;nbsp;" style="whiteSpace=wrap;html=1;rounded=1;" parent="1" vertex="1">
          <mxGeometry x="530" y="618.75" width="120" height="60" as="geometry" />
        </mxCell>
        <mxCell id="3MQ1yS42vCvJlcE-Wziv-33" value="Não" style="text;html=1;align=center;verticalAlign=middle;resizable=0;points=[];autosize=1;strokeColor=none;fillColor=none;" parent="1" vertex="1">
          <mxGeometry x="650" y="622.5" width="50" height="30" as="geometry" />
        </mxCell>
        <mxCell id="3MQ1yS42vCvJlcE-Wziv-35" value="Passar" style="ellipse;whiteSpace=wrap;html=1;rounded=1;" parent="1" vertex="1">
          <mxGeometry x="920" y="920" width="80" height="80" as="geometry" />
        </mxCell>
        <mxCell id="3MQ1yS42vCvJlcE-Wziv-37" value="" style="endArrow=classic;html=1;rounded=0;exitX=1.013;exitY=0.789;exitDx=0;exitDy=0;exitPerimeter=0;entryX=0.5;entryY=0;entryDx=0;entryDy=0;" parent="1" source="Pn8fTQrSeP5vRvdxLiqo-10" target="Pn8fTQrSeP5vRvdxLiqo-4" edge="1">
          <mxGeometry width="50" height="50" relative="1" as="geometry">
            <mxPoint x="80" y="120" as="sourcePoint" />
            <mxPoint x="80" y="190" as="targetPoint" />
            <Array as="points">
              <mxPoint x="80" y="160" />
            </Array>
          </mxGeometry>
        </mxCell>
        <mxCell id="3MQ1yS42vCvJlcE-Wziv-38" value="Girar chave sentido anti-horário&amp;nbsp;" style="rounded=0;whiteSpace=wrap;html=1;" parent="1" vertex="1">
          <mxGeometry x="900" y="720" width="120" height="60" as="geometry" />
        </mxCell>
        <mxCell id="3MQ1yS42vCvJlcE-Wziv-39" value="" style="edgeStyle=orthogonalEdgeStyle;rounded=0;orthogonalLoop=1;jettySize=auto;html=1;endArrow=none;" parent="1" source="3MQ1yS42vCvJlcE-Wziv-28" target="3MQ1yS42vCvJlcE-Wziv-38" edge="1">
          <mxGeometry relative="1" as="geometry">
            <mxPoint x="960" y="678.7500000000002" as="sourcePoint" />
            <mxPoint x="960" y="870.0000000000002" as="targetPoint" />
          </mxGeometry>
        </mxCell>
        <mxCell id="3MQ1yS42vCvJlcE-Wziv-40" value="Abrir porta" style="rounded=1;whiteSpace=wrap;html=1;" parent="1" vertex="1">
          <mxGeometry x="900" y="820" width="120" height="60" as="geometry" />
        </mxCell>
        <mxCell id="3MQ1yS42vCvJlcE-Wziv-41" value="" style="edgeStyle=orthogonalEdgeStyle;rounded=0;orthogonalLoop=1;jettySize=auto;html=1;startArrow=none;endArrow=none;" parent="1" source="3MQ1yS42vCvJlcE-Wziv-38" target="3MQ1yS42vCvJlcE-Wziv-40" edge="1">
          <mxGeometry relative="1" as="geometry">
            <mxPoint x="960" y="780.0000000000002" as="sourcePoint" />
            <mxPoint x="960" y="990.0000000000002" as="targetPoint" />
          </mxGeometry>
        </mxCell>
        <mxCell id="SgdXcrDPOoMgYyfdKbHh-1" value="" style="whiteSpace=wrap;html=1;rounded=1;" vertex="1" parent="1">
          <mxGeometry x="530" y="758.75" width="120" height="60" as="geometry" />
        </mxCell>
      </root>
    </mxGraphModel>
  </diagram>
</mxfile>
